<svg xmlns="http://www.w3.org/2000/svg" version="1.1" xmlns:xlink="http://www.w3.org/1999/xlink" xmlns:svgjs="http://svgjs.dev/svgjs" width="800" height="498" viewBox="0 0 800 498"><g transform="matrix(1,0,0,1,-0.48484848484849863,0.20161943319837405)"><svg xmlns="http://www.w3.org/2000/svg" version="1.1" xmlns:xlink="http://www.w3.org/1999/xlink" xmlns:svgjs="http://svgjs.com/svgjs" viewBox="0 0 396 247" data-background-color="#102e44" preserveAspectRatio="xMidYMid meet" height="498" width="800"><defs></defs><g id="tight-bounds" transform="matrix(1,0,0,1,0.2400000000000091,-0.09999999999999432)"><svg viewBox="0 0 395.52 247.2" height="247.2" width="395.52"><g><svg xmlns="http://www.w3.org/2000/svg" version="1.1" xmlns:xlink="http://www.w3.org/1999/xlink" xmlns:svgjs="http://svgjs.com/svgjs"></svg></g><g><svg viewBox="0 0 395.52 247.2" height="247.2" width="395.52"><g><path d="M55.039 247.2l26.403-45.732 4.688 0-23.931 41.45h271.122l-23.931-41.45 4.688 0 26.403 45.732zM197.76 0l26.403 45.732-4.687 0-21.716-37.613-21.716 37.613-4.687 0z" fill="#000000" data-fill-palette-color="tertiary"></path></g><g transform="matrix(1,0,0,1,27.93568022440388,67.97999999999999)"><svg viewBox="0 0 339.6486395511922 111.24" height="111.24" width="339.6486395511922"><g><svg viewBox="0 0 339.6486395511922 111.24" height="111.24" width="339.6486395511922"><g><svg viewBox="0 0 339.6486395511922 111.24" height="111.24" width="339.6486395511922"><g><svg viewBox="0 0 339.6486395511922 111.24" height="111.24" width="339.6486395511922"><g><svg viewBox="0 0 339.6486395511922 111.24" height="111.24" width="339.6486395511922"><g><svg viewBox="0 0 339.6486395511922 111.24" height="111.24" width="339.6486395511922"><g transform="matrix(1,0,0,1,0,0)"><svg width="339.6486395511922" viewBox="0.65 -35 108.83999999999999 35.65" height="111.24" data-palette-color="#ffffff"><path d="M36.85-6.35L41-6.35 41 0 23.5 0 23.5-6.35 28.55-6.35 26.65-11.35 14.1-11.35 12.25-6.35 17.8-6.35 17.8 0 0.65 0 0.65-6.35 4.7-6.35 13.9-28 10.35-28 10.35-34.3 31.1-34.3 31.1-28 27.6-28 36.85-6.35ZM16.2-16.95L24.55-16.95 20.4-28 20.35-28 16.2-16.95ZM54.9-5.95L59.7-5.95 59.7 0 42.65 0 42.65-5.95 47.3-5.95 47.3-28.35 42.65-28.35 42.65-34.3 54.9-34.3 54.9-5.95ZM90.2-23.55L90.2-17.6 87.2-17.6 77.1 0.65 72.85 0.65 62.4-17.6 59.55-17.6 59.55-23.55 73.35-23.55 73.35-18.25 70.35-18.25 75.75-8.05 80.9-18.25 77.6-18.25 77.6-23.55 90.2-23.55ZM100.49-27.15Q98.44-27.15 97.04-28.25 95.64-29.35 95.64-31L95.64-31Q95.64-32.75 97.04-33.88 98.44-35 100.49-35L100.49-35Q102.69-35 104.07-33.88 105.44-32.75 105.44-31L105.44-31Q105.44-29.35 104.04-28.25 102.64-27.15 100.49-27.15L100.49-27.15ZM104.74-5.95L109.49-5.95 109.49 0 92.44 0 92.44-5.95 97.14-5.95 97.14-17.6 92.44-17.6 92.44-23.55 104.74-23.55 104.74-5.95Z" opacity="1" transform="matrix(1,0,0,1,0,0)" fill="#000000" class="undefined-text-0" data-fill-palette-color="primary" id="text-0"></path></svg></g></svg></g></svg></g></svg></g></svg></g></svg></g></svg></g></svg></g></svg><rect width="395.52" height="247.2" fill="transparent" stroke="transparent"></rect></g></svg></g></svg>